<?xml version="1.0" encoding="UTF-8"?>
<svg xmlns="http://www.w3.org/2000/svg" xmlns:xlink="http://www.w3.org/1999/xlink" viewBox="0 0 24 24" width="24px" height="24px">
<g id="surface99351534">
<path style=" stroke:none;fill-rule:nonzero;fill:rgb(0%,0%,0%);fill-opacity:1;" d="M 22 9 C 22 5.144531 18.855469 2 15 2 C 11.144531 2 8 5.144531 8 9 C 8 10.746094 8.652344 12.34375 9.71875 13.574219 L 9.292969 14 L 8 14 L 2 20 L 4 22 L 10 16 L 10 14.707031 L 10.425781 14.28125 C 11.65625 15.347656 13.253906 16 15 16 C 18.855469 16 22 12.855469 22 9 Z M 20 9 C 20 11.773438 17.773438 14 15 14 C 12.226562 14 10 11.773438 10 9 C 10 6.226562 12.226562 4 15 4 C 17.773438 4 20 6.226562 20 9 Z M 20 9 "/>
</g>
</svg>
